<svg width="200" height="60" viewBox="0 0 200 60" fill="none" xmlns="http://www.w3.org/2000/svg">
  <!-- Receipt Icon -->
  <rect x="8" y="12" width="24" height="36" rx="3" fill="#2563eb" stroke="#1e40af" stroke-width="1.5"/>
  
  <!-- Receipt Lines -->
  <line x1="12" y1="18" x2="28" y2="18" stroke="white" stroke-width="1.5" opacity="0.8"/>
  <line x1="12" y1="22" x2="25" y2="22" stroke="white" stroke-width="1" opacity="0.6"/>
  <line x1="12" y1="26" x2="27" y2="26" stroke="white" stroke-width="1" opacity="0.6"/>
  <line x1="12" y1="30" x2="23" y2="30" stroke="white" stroke-width="1" opacity="0.6"/>
  <line x1="12" y1="38" x2="28" y2="38" stroke="white" stroke-width="2"/>
  
  <!-- Arrow -->
  <path d="M40 30 L50 30 M46 26 L50 30 L46 34" stroke="#16a34a" stroke-width="2.5" fill="none" stroke-linecap="round" stroke-linejoin="round"/>
  
  <!-- Spreadsheet Icon -->
  <rect x="58" y="18" width="20" height="24" rx="2" fill="none" stroke="#16a34a" stroke-width="1.5"/>
  <line x1="63" y1="18" x2="63" y2="42" stroke="#16a34a" stroke-width="1"/>
  <line x1="68" y1="18" x2="68" y2="42" stroke="#16a34a" stroke-width="1"/>
  <line x1="73" y1="18" x2="73" y2="42" stroke="#16a34a" stroke-width="1"/>
  <line x1="58" y1="24" x2="78" y2="24" stroke="#16a34a" stroke-width="1"/>
  <line x1="58" y1="30" x2="78" y2="30" stroke="#16a34a" stroke-width="1"/>
  <line x1="58" y1="36" x2="78" y2="36" stroke="#16a34a" stroke-width="1"/>
  
  <!-- Text -->
  <text x="88" y="25" font-family="Arial, sans-serif" font-size="18" font-weight="bold" fill="#1f2937">SlickReceipts</text>
  <text x="88" y="40" font-family="Arial, sans-serif" font-size="10" fill="#6b7280">Transform receipts to data</text>
</svg>